<svg xmlns="http://www.w3.org/2000/svg" viewBox="0 0 399.92 112.85"><defs><style>.cls-1{fill:#fcfcfc;}</style></defs><title>aea_logo</title><g id="Layer_5" data-name="Layer 5"><path class="cls-1" d="M542.77,245.72A20.41,20.41,0,0,0,523,230.18L309.73,230v0H275.64a32.26,32.26,0,0,0-24.79,11.62L166.66,342.85h44.12a10.43,10.43,0,0,0,8.4-4.26l56.94-77.74a3.4,3.4,0,0,1,6,1.18l11,48H251.21l-14.46,20h61.37l2,5.83a10,10,0,0,0,9.54,7h28.89v0h56.09v0h36.55a25.38,25.38,0,0,0,20.45-10.37l52.46-71.63a3.4,3.4,0,0,1,6,1.18l11.23,48H478.94l-14.47,20h61.91l2.07,5.27a10,10,0,0,0,9.7,7.58h28.43Zm-75,9.27a25,25,0,0,1-19.22,9h-84A15,15,0,0,0,351.84,271L348,276H449.43l-9.95,13a25,25,0,0,1-19.27,9h-55a15,15,0,0,0-12.93,7.4L349,310h72.15l-8.31,11a25,25,0,0,1-19.21,9H353.31a5.46,5.46,0,0,0-.58,0H345.4a13,13,0,0,1-12.5-9.35L313.05,243H477.71Z" transform="translate(-166.66 -230)"/></g></svg>